<svg width="23" height="25" viewBox="0 0 23 25" fill="none" xmlns="http://www.w3.org/2000/svg">
<path d="M6 7H1L7 1V6C7 6.55 6.55 7 6 7Z" stroke="#666666" stroke-miterlimit="10" stroke-linecap="round" stroke-linejoin="round"/>
<path d="M20 15.06V23C20 23.55 19.55 24 19 24H2C1.45 24 1 23.55 1 23V9.06" stroke="#666666" stroke-miterlimit="10" stroke-linecap="round" stroke-linejoin="round"/>
<path d="M9 1H19C19.55 1 20 1.45 20 2V7" stroke="#666666" stroke-miterlimit="10" stroke-linecap="round" stroke-linejoin="round"/>
<path d="M13.53 19.24L9.64001 21.01L11.4 17.12L19.89 8.64001L22.01 10.76L13.53 19.24Z" stroke="#666666" stroke-miterlimit="10" stroke-linecap="round" stroke-linejoin="round"/>
<path d="M20.35 12.42L18.22 10.3" stroke="#666666" stroke-miterlimit="10" stroke-linejoin="round"/>
<path d="M13.52 19.25L11.4 17.12" stroke="#666666" stroke-miterlimit="10" stroke-linejoin="round"/>
</svg>
